<?xml version="1.0" encoding="utf-8"?>
<!-- Generator: Adobe Illustrator 22.0.0, SVG Export Plug-In . SVG Version: 6.00 Build 0)  -->
<svg version="1.1" id="图层_1" xmlns="http://www.w3.org/2000/svg" xmlns:xlink="http://www.w3.org/1999/xlink" x="0px" y="0px"
	 viewBox="0 0 538.1 126.7" style="enable-background:new 0 0 538.1 126.7;" xml:space="preserve">
<style type="text/css">
	.st0{fill:#FFC600;}
</style>
<g>
	<path class="st0" d="M66.7,108.8C52.4,120,30.2,125.9,0.1,126.5L0,108.8c22.5-0.9,38.8-5.3,49-13.1V68.6h22.2V97h13.7l41.2,28.4
		h-34L66.7,108.8z M124.6,0.1v8.6c0,5.7-3.7,8.6-11.1,8.6H0.8V0.1H124.6z M29.2,102.7h-22V58.8c0-11.4,4-17.1,12.1-17.1L11,24.8h23
		C39.5,36,45.8,41.7,52.7,41.7l-7-16.9h23c4.8,11.2,9.8,16.9,15,16.9l8.6-16.9h23l-8.6,16.9c6.8,0,10.2,5.7,10.2,17.1v43.9h-22V67.3
		c0-5.7-3.3-8.6-9.9-8.6H29v44H29.2z"/>
	<path class="st0" d="M162.2,13.3l-2.9,106.3c-1.3,4-4.1,6-8.2,6H138l3.2-112.4L162.2,13.3L162.2,13.3z M188.2,3v100.8
		c0,2.1,1.1,3.1,3.2,3.1h43.9v7.6c0,7.4-3.8,11.1-11.4,11.1H184c-11.7-0.1-17.5-5.6-17.5-16.6V3H188.2z M216.6,50.3
		c0.7,7.8,3.6,11,8.7,9.6c5.1-1.4,8.3-8.5,9.5-21.5l1.7-24.5l20.4-0.3l3.8,111.6h-20.4l-1.9-55.7c-4.1,8.2-11.6,12.1-22.4,11.7
		c-11.3-0.4-18.1-8.4-20.2-23.8l-2.9-51h20.8L216.6,50.3z"/>
	<path class="st0" d="M288.5,6.8v107.4c0,5-2.5,7.5-7.4,7.5h-7.5V6.8H288.5z M315.6,0.1v25.3h6.8v17.3h-6.8v83h-21V0.1H315.6z
		 M374.5,5.8h25.6v13.3h-25.6v6.3h25.2v13.1h-25.2v5.2h25.6V57h-74.6V43.7h26.4v-1.3c0-2.6-1.9-3.9-5.6-3.9h-19.8V25.4h25.4v-2
		c0-2.9-2.1-4.3-6.3-4.3h-18.7V5.8h25V0.6h22.6L374.5,5.8L374.5,5.8z M388.8,126.5h-11.1v-6.3c0-4.2-2.1-6.3-6.2-6.3h-20.4v11.8
		h-23.2V77.4c0-10.3,5.9-15.3,17.7-15.1h37.5c11.1,0,16.6,4.7,16.6,14.2v39.2C399.9,122.9,396.3,126.5,388.8,126.5z M371.5,77.5
		h-20.4v6h26.5v-1.6C377.7,79,375.6,77.5,371.5,77.5z M371.5,96h-20.4v5.5h26.5v-1.3C377.7,97.4,375.6,96,371.5,96z"/>
	<path class="st0" d="M431.1,90.1V113c0.2,8.7-3.2,13.1-10.2,13.4h-10.2V90.1L431.1,90.1L431.1,90.1z M431.7,6.7h55.8L485.6,0h21.2
		l2,6.7h7.1l-2-5.4h17.7l3.2,11.2c0.1,7.1-3.3,10.6-10,10.6h-11.7l6.4,18.6l17.7-9.6v20.4l-11.1,6.6l9.6,26.4h-22.1l-21.8-62.3
		h-59.7v50.1c-0.1,8.4-3.9,12.6-11.4,12.6h-8.8V25.7C411.8,13,418.5,6.7,431.7,6.7z M458,89.8v20.5c0,1.8,1.2,2.7,3.6,2.7h74.6v5.5
		c0,5.4-3,8.2-9.1,8.2h-77.5c-8.8-0.2-13.3-4.6-13.3-13.4V89.9H458V89.8z M490.6,28.6v13.9h-54V28.6H490.6z M490.9,85.7h-53.7v-7.6
		V62.6c0-9.5,4.6-14.2,13.8-14.2h25.7c9.3,0,13.9,4.4,13.9,13.3L490.9,85.7z M466.9,63.3h-11.2v7.4h16.4v-3.2
		C472.1,64.7,470.4,63.3,466.9,63.3z M489.4,99.9c0.8,1.3,2.3,1.4,4.4,0.1l12.7-8.6c1.3-1.4,3.5-2.2,6.6-2.3H527
		c4.8,0,7.4,2.5,7.8,7.6v13.4H512V98.3l-15.5,10.6c-1.5,0.8-3.4,1.2-5.6,1.2h-15.1c-3.9-0.2-6.3-1.2-7.1-3.1l-6.8-17.7h23.8
		L489.4,99.9z"/>
</g>
</svg>
